<?xml version="1.0" encoding="UTF-8"?>
<svg id="Camada_2" data-name="Camada 2" xmlns="http://www.w3.org/2000/svg" viewBox="0 0 559.33 635.3">
  <defs>
    <style>
      .cls-1 {
        fill: #0038ff;
      }
    </style>
  </defs>
  <g id="Camada_1-2" data-name="Camada 1">
    <g>
      <path class="cls-1" d="M559.31,180.96l-41.76,24.61-28.06,15.97-.17,160.93-139.65-80.43-52.05,30.31.04,302.84,63.36-36.31c1.96-1.12,3.72-1.78,4.54-3.52h1c.36.03,1-.27,1-1.21v-179.6c3.91.85,6.85,3.1,10.8,5.39l146.14,84.32,29.66-16.92c2-1.14,4.44-1.11,5.16-4.12l-.02-302.26ZM415.81,343.29s.01.01.02.02c-.01,0-.02-.02-.04-.03,0,0,.01,0,.02.01Z"/>
      <path class="cls-1" d="M262.7,493.48v-31.96s0-127.84,0-127.84c-.64-1.69-1.77-2.21-3.91-3.44L.09,180.87l-.09,303.41,43.74,25.32c2.08,1.54,4.09,2.52,5.98,3.11l20.19,11.86.02-79.75c3.46.37,6.06,2.35,9.54,4.36l113.2,65.49.31,81.02,68.98,39.61c1.3-4.93.73-8.96.73-12.98l.02-128.84ZM70.19,302.67l122.65,70.69-.32,60-122.54-70.58.2-60.12Z"/>
      <path class="cls-1" d="M413.8,197.92l-7.09-4.42-127.02-73.22-52.36,30.43,86.85,50.38-34.4,20.07-114.7-66.27c-2.12-1.8-4.07-2.68-6.25-2.8-.13-1.32.49-2.48,1.89-3.29l30.49-17.56,84.64-48.94c2.6-1.5,4.54-1.9,7.17-.37l189.09,109.31,70.01-40.43-34.09-19.71c-1.41-1.18-2.77-1.83-4.97-3.1L285.01,2.05c-2.68-2.27-5.41-2.76-8.61-.91L17.37,150.74l211.26,121.9,51.08,29.72,157.32-91.05-23.22-13.39Z"/>
    </g>
  </g>
</svg>